<svg width="31" height="30" viewBox="0 0 31 30" fill="#F0F5F4" xmlns="http://www.w3.org/2000/svg">
<path d="M26.75 20H14.25C13.9185 20 13.6005 20.1317 13.3661 20.3661C13.1317 20.6005 13 20.9185 13 21.25C13 21.5815 13.1317 21.8995 13.3661 22.1339C13.6005 22.3683 13.9185 22.5 14.25 22.5H26.75C27.0815 22.5 27.3995 22.3683 27.6339 22.1339C27.8683 21.8995 28 21.5815 28 21.25C28 20.9185 27.8683 20.6005 27.6339 20.3661C27.3995 20.1317 27.0815 20 26.75 20ZM4.25 10H26.75C27.0815 10 27.3995 9.8683 27.6339 9.63388C27.8683 9.39946 28 9.08152 28 8.75C28 8.41848 27.8683 8.10054 27.6339 7.86612C27.3995 7.6317 27.0815 7.5 26.75 7.5H4.25C3.91848 7.5 3.60054 7.6317 3.36612 7.86612C3.1317 8.10054 3 8.41848 3 8.75C3 9.08152 3.1317 9.39946 3.36612 9.63388C3.60054 9.8683 3.91848 10 4.25 10ZM26.75 13.75H4.25C3.91848 13.75 3.60054 13.8817 3.36612 14.1161C3.1317 14.3505 3 14.6685 3 15C3 15.3315 3.1317 15.6495 3.36612 15.8839C3.60054 16.1183 3.91848 16.25 4.25 16.25H26.75C27.0815 16.25 27.3995 16.1183 27.6339 15.8839C27.8683 15.6495 28 15.3315 28 15C28 14.6685 27.8683 14.3505 27.6339 14.1161C27.3995 13.8817 27.0815 13.75 26.75 13.75Z" fill="#F0F5F4" style="fill:#F0F5F4;fill:color(display-p3 0.9412 0.9608 0.9569);fill-opacity:1;"/>
</svg>
